<svg id="Layer_1" viewBox="0 0 512 512" xmlns="http://www.w3.org/2000/svg" data-name="Layer 1"><g fill-rule="evenodd"><path d="m329.588 81.7c0-26.873-72.227-48.643-161.292-48.643s-161.291 21.768-161.291 48.643v304.325c0 26.872 72.227 48.642 161.291 48.642s161.292-21.77 161.292-48.642z" fill="#ffab02"/><path d="m168.3 130.312c88.838 0 161.292-21.855 161.292-48.614 0-26.788-72.454-48.643-161.292-48.643s-161.295 21.855-161.295 48.645c0 26.759 72.453 48.614 161.291 48.614z" fill="#ed9e00"/><path d="m7.005 81.7v99.1c0 26.844 72.227 48.614 161.291 48.614s161.292-21.77 161.292-48.614v-99.1c0 26.844-72.227 48.614-161.292 48.614s-161.291-21.772-161.291-48.614z" fill="#ffab02"/><path d="m329.588 184.312h-.426c-5.952 25.2-75.713 45.1-160.866 45.1s-154.913-19.9-160.866-45.1h-.425v99.1c0 26.844 72.227 48.614 161.291 48.614s161.292-21.77 161.292-48.614z" fill="#ed9e00"/><path d="m210.674 302.29h227.083v176.655h-198.4a28.775 28.775 0 0 1 -28.687-28.687z" fill="#72bff2"/><path d="m270.882 152.053v252.227h201.373v-207.014l-45.212-45.213z" fill="#d5e3f2"/><path d="m427.043 152.053 45.212 45.213h-45.212z" fill="#b7cfe8"/><path d="m247.978 346.822h122.457l24.665-40.706h98.221a11.7 11.7 0 0 1 11.679 11.684v161.15h-265.639v-123.511a8.632 8.632 0 0 1 8.617-8.617z" fill="#8dd1fe"/><path d="m309.263 105.338v46.715h20.325v-70.353c0 8.56-7.371 16.639-20.325 23.64z" fill="#ed9e00"/><path d="m386.649 320.035h89.4a11.716 11.716 0 0 1 11.678 11.678v147.232h17.273v-161.145a11.7 11.7 0 0 0 -11.678-11.679h-98.222z" fill="#72bff2"/></g><path d="m460.661 197.266h11.594v108.85h-11.594z" fill="#b7cfe8"/><path d="m186.968 382.8a7 7 0 0 1 -6.66 7.327c-7.589.362-15.559.547-23.691.547a7 7 0 1 1 0-14c7.91 0 15.656-.178 23.023-.53a7.017 7.017 0 0 1 7.328 6.656zm-30.351-94.6c8.118 0 16.089-.185 23.691-.548a7 7 0 0 0 -.328-13.995c-.113 0-.226 0-.34.009-7.38.351-15.127.53-23.023.53a7 7 0 1 0 0 14zm0-102.474c7.933 0 15.9-.175 23.667-.517a7 7 0 0 0 -.619-13.991c-7.565.335-15.32.5-23.048.5a7 7 0 1 0 0 14zm139.1 18.539h103.1a7 7 0 0 0 0-14h-103.1a7 7 0 0 0 0 14zm216.283 113.535v161.147a7 7 0 0 1 -7 7h-265.639c-.034 0-.066 0-.1 0s-.065 0-.1 0h-.051a35.787 35.787 0 0 1 -35.44-35.688v-9.759c-11.435.755-23.295 1.143-35.377 1.143-43.763 0-84.986-5.159-116.077-14.528-34.159-10.294-52.216-24.502-52.216-41.088v-304.327c0-16.588 18.057-30.8 52.216-41.1 31.1-9.378 72.322-14.543 116.079-14.543s84.967 5.165 116.068 14.543c34.167 10.3 52.227 24.509 52.227 41.1v63.355h90.454a7.006 7.006 0 0 1 4.956 2.045l45.214 45.212a7.009 7.009 0 0 1 2.051 4.952v101.851h14.059a18.7 18.7 0 0 1 18.676 18.685zm-77.954-127.537h21.307l-21.307-21.305zm-14 7v-38.208h-142.162v180.766h88.606l22.589-37.329a7 7 0 0 1 5.99-3.377h70.186v-94.847h-38.211a7 7 0 0 1 -7.002-7.002zm-406.046-115.243c.313 7.228 11.714 18.23 42.811 27.511 29.768 8.885 69.359 13.778 111.48 13.778 95 0 153.864-24.117 154.291-41.424v-.185c0-17.388-58.7-41.641-154.291-41.641s-154.291 24.249-154.291 41.641zm0 98.78c0 17.376 58.7 41.612 154.291 41.612 34.538 0 68.216-3.4 95.584-9.615v-60.744a7 7 0 0 1 7-7h51.705v-39.934c-8.838 6.743-21.77 12.725-38.576 17.761-31.06 9.307-72.156 14.433-115.715 14.433-43.44 0-84.453-5.1-115.485-14.364-16.904-5.049-29.919-11.049-38.804-17.828zm0 102.615c0 17.376 58.7 41.613 154.291 41.613 12.1 0 23.961-.4 35.377-1.174v-21.564a7 7 0 0 1 7-7h53.205v-68.168c-27.79 6.006-61.317 9.291-95.584 9.291-43.752 0-84.976-5.164-116.078-14.539-16.63-5.015-29.435-10.959-38.211-17.65zm189.672 143.051v-88.581c-11.44.755-23.3 1.144-35.377 1.144-43.752 0-84.976-5.164-116.078-14.54-16.636-5.015-29.441-10.959-38.217-17.65v79.188c0 17.373 58.7 41.612 154.3 41.612 12.1 0 23.961-.397 35.372-1.173zm44.306-86.645h15.9v-30.529h-46.2v140.968a21.749 21.749 0 0 0 14.683 20.5v-115.319a15.637 15.637 0 0 1 15.617-15.62zm250.022-22.021a4.682 4.682 0 0 0 -4.677-4.677h-94.3l-22.59 37.329a7.006 7.006 0 0 1 -5.991 3.377h-122.464a1.637 1.637 0 0 0 -1.615 1.616v116.5h251.637zm-209.288-90.685a7 7 0 0 0 7 7h151.713a7 7 0 1 0 0-14h-151.711a7 7 0 0 0 -7.002 7zm158.713 22.847h-151.711a7 7 0 0 0 0 14h151.711a7 7 0 0 0 0-14z"/></svg>